<?xml version="1.0" standalone="no"?>
<!DOCTYPE svg PUBLIC "-//W3C//DTD SVG 20010904//EN"
 "http://www.w3.org/TR/2001/REC-SVG-20010904/DTD/svg10.dtd">
<svg version="1.0" xmlns="http://www.w3.org/2000/svg"
 width="465.000000pt" height="465.000000pt" viewBox="0 0 465.000000 465.000000"
 preserveAspectRatio="xMidYMid meet">
<metadata>
Created by potrace 1.14, written by Peter Selinger 2001-2017
</metadata>
<g transform="translate(0.000000,465.000000) scale(0.100000,-0.100000)"
fill="#000000" stroke="none">
<path d="M2258 4375 c-1 -2 -31 -6 -66 -9 -34 -3 -73 -8 -85 -11 -12 -3 -33
-7 -47 -9 -36 -7 -58 -12 -122 -29 -32 -8 -58 -12 -58 -9 0 4 -4 3 -8 -3 -4
-5 -45 -23 -90 -38 -82 -27 -162 -59 -192 -78 -8 -4 -31 -16 -50 -26 -94 -47
-281 -174 -370 -253 -96 -84 -203 -199 -269 -290 -22 -30 -44 -60 -49 -66 -40
-47 -178 -299 -174 -316 1 -5 -2 -8 -8 -8 -6 0 -9 -3 -8 -7 1 -5 -5 -21 -12
-38 -7 -16 -14 -34 -16 -40 -1 -5 -14 -40 -28 -77 -14 -38 -23 -68 -20 -68 2
0 -2 -15 -10 -34 -8 -19 -12 -37 -8 -40 3 -3 0 -6 -7 -6 -7 0 -10 -4 -7 -9 4
-5 0 -33 -8 -63 -7 -29 -12 -61 -10 -70 1 -10 -1 -18 -5 -18 -4 0 -8 -12 -8
-27 0 -16 -4 -48 -8 -73 -14 -89 -8 -468 8 -510 3 -8 8 -35 11 -60 6 -48 22
-135 26 -135 1 0 3 -7 5 -16 15 -78 72 -231 131 -356 19 -40 35 -76 36 -80 0
-5 9 -19 19 -32 11 -13 19 -30 19 -37 0 -8 4 -14 9 -14 5 0 14 -13 21 -30 7
-16 16 -30 21 -30 5 0 9 -7 9 -15 0 -9 7 -18 15 -21 8 -4 15 -10 15 -16 0 -11
51 -81 63 -86 4 -2 7 -7 7 -12 0 -21 266 -290 288 -290 7 0 10 -4 7 -10 -3 -5
-1 -10 5 -10 9 0 79 -49 100 -70 3 -3 17 -11 33 -19 15 -8 27 -18 27 -23 0 -4
5 -8 10 -8 6 0 34 -15 63 -33 89 -55 299 -151 361 -163 10 -2 24 -8 32 -15 8
-6 14 -9 14 -6 0 3 29 -3 65 -13 36 -10 65 -16 65 -13 0 3 7 0 15 -7 8 -7 15
-10 15 -8 0 3 19 1 43 -3 44 -9 126 -21 164 -23 12 -1 25 -5 29 -8 3 -4 16 -3
29 2 13 5 26 6 31 2 4 -4 4 -1 -1 6 -9 16 -13 122 -4 122 3 0 3 20 -1 45 -4
25 -3 48 1 51 5 2 5 15 1 27 -5 12 -5 38 -2 57 3 19 3 46 -1 60 -3 14 -3 34 1
45 4 11 4 29 0 41 -5 11 -5 27 0 34 4 7 4 24 0 39 -4 14 -4 35 0 46 4 11 5 24
3 28 -4 7 -7 71 -4 104 1 6 13 25 27 42 14 17 22 31 18 31 -4 0 0 8 9 18 36
40 53 177 32 262 -3 14 -8 36 -11 50 -3 14 -9 27 -15 28 -5 2 -9 9 -9 15 0 15
-66 86 -105 113 -59 40 -255 110 -291 103 -5 -1 -12 0 -16 1 -14 4 -22 6 -61
14 -20 5 -40 12 -43 17 -3 5 -14 9 -25 9 -10 0 -19 5 -19 10 0 6 -5 10 -11 10
-19 0 -55 51 -51 72 1 4 3 21 4 37 1 17 6 31 10 31 4 0 8 5 8 10 0 28 71 71
125 77 52 5 147 4 169 -3 35 -10 103 -42 117 -56 47 -44 43 -46 133 46 85 87
88 95 40 110 -26 8 -48 79 -33 107 6 12 5 19 -2 21 -8 3 -6 9 4 20 12 12 25
14 57 8 66 -12 307 -4 393 14 235 47 424 155 545 313 36 47 89 156 94 193 2
14 6 30 10 35 10 16 2 227 -9 255 -6 14 -12 30 -13 35 -1 6 -7 21 -13 35 -6
14 -11 27 -11 30 -3 16 -68 111 -98 143 -20 20 -33 37 -30 37 2 0 -8 10 -24
22 -16 12 -31 25 -34 28 -14 18 -177 120 -200 125 -3 1 -12 5 -20 8 -31 13
-126 45 -155 53 -16 4 -32 8 -35 9 -3 1 -25 5 -50 9 -25 4 -58 10 -75 13 -60
11 -278 9 -344 -2 -38 -6 -111 -10 -164 -9 l-95 2 2 -35 c1 -19 -1 -36 -4 -38
-3 -2 -3 -119 0 -260 3 -141 2 -258 -1 -260 -3 -2 -2 -29 1 -60 3 -31 4 -58 1
-60 -3 -2 -4 -119 -1 -260 3 -141 3 -259 1 -261 -3 -2 -3 -29 -2 -59 l2 -54
-98 1 c-96 1 -229 -25 -207 -40 5 -4 10 -23 10 -42 1 -75 -87 -110 -143 -57
-28 25 -35 20 -24 -19 15 -54 -5 -128 -38 -139 -9 -2 -30 -6 -48 -7 -34 -2
-42 -18 -43 -83 -1 -32 6 -110 10 -110 1 0 4 -11 6 -25 2 -13 11 -35 19 -47 9
-13 13 -23 9 -23 -3 0 13 -18 37 -41 38 -36 137 -95 178 -104 9 -3 48 -12 86
-22 39 -10 82 -18 98 -17 15 1 27 -3 27 -7 0 -5 7 -6 15 -3 8 3 20 2 27 -2 7
-5 23 -10 36 -12 33 -4 88 -42 105 -72 22 -37 26 -93 10 -131 -8 -19 -14 -36
-13 -38 1 -4 -31 -23 -80 -46 -34 -16 -183 -28 -205 -16 -5 2 -18 6 -30 8 -30
4 -47 9 -78 21 -16 7 -32 12 -36 12 -5 0 -14 7 -21 15 -7 9 -15 13 -17 11 -3
-3 -18 8 -33 24 l-28 29 -23 -29 c-13 -16 -27 -26 -31 -24 -4 3 -8 1 -8 -4 0
-6 -22 -33 -49 -60 -29 -30 -48 -58 -47 -69 4 -30 153 -133 192 -133 8 0 14
-5 14 -11 0 -6 6 -9 14 -6 7 3 18 1 23 -4 6 -6 28 -12 49 -15 21 -3 50 -7 64
-10 33 -7 202 -11 215 -5 6 3 20 6 32 7 19 1 22 -5 25 -48 1 -28 1 -51 -1 -54
-2 -2 -3 -39 -2 -83 2 -75 1 -80 -18 -78 -12 1 -21 5 -21 10 0 4 -5 5 -10 2
-6 -3 -16 -3 -23 2 -6 4 -14 8 -17 9 -39 7 -102 28 -106 35 -3 5 -13 9 -22 9
-9 0 -53 18 -96 40 -44 22 -86 40 -94 40 -7 0 -11 4 -8 8 3 5 -10 15 -29 22
-19 8 -35 17 -35 22 0 4 -7 8 -15 8 -9 0 -18 7 -21 15 -3 8 -15 17 -26 21 -11
3 -36 21 -56 40 -19 18 -39 31 -43 28 -4 -2 -10 5 -14 16 -3 11 -11 20 -17 20
-13 0 -168 158 -168 171 0 6 -4 7 -10 4 -5 -3 -10 1 -10 9 0 9 -4 16 -10 16
-5 0 -10 7 -10 15 0 8 -9 19 -20 25 -11 6 -20 17 -20 25 0 7 -3 15 -7 17 -12
5 -73 95 -73 107 0 6 -4 11 -8 11 -5 0 -14 16 -22 35 -8 19 -17 35 -21 35 -4
0 -10 13 -14 30 -4 16 -11 30 -16 30 -5 0 -8 3 -7 8 1 4 -6 22 -15 39 -10 18
-15 33 -11 33 4 0 1 7 -6 15 -7 8 -9 15 -4 15 5 0 4 4 -1 8 -10 6 -38 82 -40
107 -1 6 -6 20 -13 33 -7 12 -10 22 -6 22 3 0 2 6 -3 13 -5 6 -10 21 -11 32
-2 24 -7 45 -15 65 -3 8 -8 29 -11 47 -2 17 -7 37 -12 44 -4 8 -3 10 4 5 9 -5
9 0 2 19 -6 15 -11 53 -13 86 -1 32 -6 59 -11 59 -5 0 -4 6 2 13 6 7 7 18 3
26 -5 8 -5 26 -1 41 4 15 4 33 0 41 -5 7 -6 18 -2 23 9 16 9 76 -1 76 -5 0 -5
6 0 13 6 6 11 19 11 27 1 16 6 53 17 135 4 27 11 57 16 66 4 9 6 19 2 22 -3 4
0 13 7 22 7 8 10 15 7 15 -3 0 1 21 9 48 8 26 17 54 19 62 2 8 4 16 5 18 2 1
3 6 4 11 0 5 4 13 9 17 4 4 7 13 7 19 0 7 8 30 17 51 9 22 18 42 19 47 1 4 3
10 4 15 1 4 2 10 1 15 0 4 4 7 10 7 5 0 7 5 4 10 -3 6 -2 10 3 10 9 0 25 37
23 53 -1 4 4 7 11 7 6 0 9 3 5 6 -3 3 -1 11 4 18 5 6 25 36 44 66 19 30 39 60
45 67 5 7 10 17 10 23 0 5 4 10 8 10 5 0 17 16 27 35 11 19 21 32 24 29 3 -2
10 4 15 14 19 34 64 82 77 82 7 0 10 3 6 6 -6 7 45 59 118 119 26 22 54 46 61
53 7 6 17 12 22 12 6 0 12 7 16 15 3 8 12 15 21 15 8 0 15 5 15 11 0 5 5 7 10
4 6 -3 10 -2 10 4 0 10 134 91 151 91 5 0 9 5 9 10 0 6 3 9 8 8 4 -2 28 8 54
21 27 12 54 24 60 25 7 1 20 6 28 11 8 5 24 11 34 12 11 2 25 8 33 14 7 6 13
9 13 5 0 -3 17 1 38 9 34 13 142 42 187 51 92 17 379 23 470 10 111 -16 241
-44 295 -64 8 -3 17 -6 20 -7 3 -1 19 -8 35 -15 17 -7 36 -14 44 -16 27 -5
211 -98 211 -106 0 -4 7 -8 15 -8 26 0 205 -130 271 -197 18 -18 37 -33 43
-33 6 0 11 -4 11 -8 0 -5 21 -31 48 -58 26 -28 58 -65 72 -84 14 -18 33 -41
43 -51 9 -11 17 -21 17 -24 0 -3 16 -28 36 -56 43 -61 135 -235 128 -241 -2
-3 2 -11 11 -18 8 -7 15 -18 15 -26 0 -7 5 -25 12 -41 6 -15 12 -33 13 -39 2
-7 12 -38 23 -70 11 -33 24 -75 28 -94 4 -19 8 -37 9 -40 1 -3 5 -25 10 -50 5
-25 9 -47 10 -50 3 -11 16 -180 19 -240 4 -94 -18 -332 -35 -377 -5 -13 -8
-27 -8 -31 1 -4 1 -9 -1 -12 -1 -3 -3 -15 -6 -28 -19 -104 -180 -482 -205
-482 -5 0 -9 -5 -9 -12 0 -19 -96 -148 -172 -230 -27 -28 -48 -55 -48 -60 0
-4 -3 -8 -7 -8 -5 0 -31 -22 -58 -48 -28 -26 -66 -58 -84 -72 -18 -14 -46 -35
-61 -47 -15 -13 -32 -23 -38 -23 -6 0 -12 -4 -14 -8 -7 -17 -231 -139 -268
-146 -3 -1 -11 -5 -17 -9 -7 -5 -13 -6 -13 -2 0 3 -19 -4 -42 -16 -24 -12 -44
-21 -45 -20 -2 0 -4 1 -5 0 -2 0 -11 -2 -20 -5 -10 -2 -24 -6 -30 -8 -7 -2
-23 -7 -35 -11 -13 -4 -23 -15 -24 -24 0 -9 -3 -67 -5 -129 l-5 -113 33 5 c18
3 49 10 68 16 19 6 45 13 57 16 12 2 35 9 50 16 16 6 32 10 37 9 4 -1 14 3 21
9 7 6 22 13 34 15 66 13 407 204 472 265 9 8 36 31 60 50 45 36 212 201 239
236 8 11 31 40 50 64 47 60 110 149 110 156 0 3 8 18 18 32 56 80 158 305 189
417 30 109 63 258 67 307 3 35 8 77 11 93 5 35 6 326 1 370 -2 17 -7 53 -10
80 -3 28 -8 61 -11 75 -3 14 -7 39 -10 55 -3 24 -30 129 -48 190 -21 73 -42
132 -49 140 -4 5 -8 15 -8 22 0 15 -99 221 -132 274 -13 20 -34 55 -47 78 -14
22 -28 41 -33 41 -4 0 -8 6 -8 13 0 8 -9 22 -20 32 -11 10 -20 22 -20 26 0 9
-6 17 -102 123 -69 78 -105 113 -157 156 -23 19 -57 47 -74 62 -37 32 -154
112 -212 146 -56 32 -263 133 -283 137 -9 3 -51 16 -92 31 -41 14 -86 28 -100
30 -14 3 -32 7 -40 11 -8 3 -24 8 -35 10 -11 2 -42 8 -70 13 -27 6 -79 13
-115 17 -70 7 -386 14 -392 8z m382 -840 c67 -9 202 -58 267 -96 71 -42 172
-141 198 -194 11 -22 24 -43 28 -46 5 -3 8 -8 7 -10 -1 -2 3 -22 9 -45 23 -84
1 -181 -60 -273 -73 -110 -198 -190 -365 -234 -75 -20 -109 -24 -204 -22 -63
2 -135 9 -159 17 -38 11 -44 17 -45 41 -1 15 2 27 7 27 4 0 5 5 2 11 -9 14
-13 69 -5 69 3 0 4 17 2 38 -1 20 -3 43 -2 50 0 6 0 18 0 25 0 6 -1 38 -2 70
-2 31 1 57 5 57 5 0 5 5 2 11 -9 14 -13 69 -5 69 3 0 4 17 2 38 -1 20 -3 43
-2 50 0 6 0 18 0 25 0 6 -1 38 -2 70 -2 31 1 57 5 57 5 0 5 5 2 11 -9 13 -13
69 -6 69 8 0 6 64 -2 76 -13 22 6 32 83 41 25 3 46 7 48 8 5 5 140 -2 192 -10z
m-948 -1414 c14 -2 37 -71 31 -89 -9 -26 -45 -52 -73 -51 -67 0 -96 81 -48
133 10 10 55 14 90 7z"/>
<path d="M1413 2700 c-63 -25 -52 -126 15 -137 64 -10 107 66 65 114 -23 26
-52 34 -80 23z"/>
<path d="M1528 2516 c-41 -44 -9 -116 51 -118 64 -2 95 76 48 120 -28 27 -73
26 -99 -2z"/>
<path d="M1316 2481 c-26 -16 -30 -25 -28 -70 3 -54 73 -78 114 -39 61 59 -13
154 -86 109z"/>
<path d="M2961 2375 c-60 -14 -151 -54 -151 -67 0 -4 -6 -8 -14 -8 -38 0 -146
-135 -163 -204 -11 -44 -10 -163 2 -201 7 -22 14 -46 16 -54 9 -33 93 -121
115 -121 8 0 14 -4 14 -10 0 -5 5 -10 10 -10 6 0 29 -9 52 -20 22 -11 45 -17
49 -14 5 3 9 0 9 -7 0 -7 3 -10 6 -7 3 4 20 1 37 -7 18 -7 38 -10 46 -7 10 3
11 0 5 -9 -6 -12 -5 -12 8 -1 11 9 23 10 42 2 14 -5 26 -8 26 -5 0 2 15 -1 33
-6 17 -6 41 -12 52 -14 11 -3 21 -9 23 -15 2 -5 9 -10 16 -10 16 0 52 -41 61
-70 29 -91 -27 -175 -130 -196 -48 -9 -108 -11 -140 -3 -16 5 -43 10 -60 12
-43 5 -104 33 -149 69 l-39 31 -78 -82 c-44 -45 -79 -88 -79 -96 0 -8 10 -20
23 -26 12 -7 30 -21 40 -32 9 -11 17 -16 17 -11 0 5 4 4 8 -2 18 -29 164 -89
247 -101 72 -11 213 -9 255 3 24 7 46 11 48 9 3 -2 19 3 36 12 17 10 34 16 39
15 4 -1 7 3 7 10 0 6 3 9 6 5 19 -18 153 113 191 186 23 45 27 64 27 142 -1
77 -4 107 -14 135 -1 3 -3 10 -4 15 -3 16 -19 49 -30 63 -14 17 -72 74 -88 87
-14 11 -128 68 -140 71 -5 1 -9 2 -10 4 -2 1 -10 3 -18 5 -42 9 -70 15 -124
25 -32 6 -70 16 -85 22 -14 6 -32 12 -39 14 -42 8 -86 83 -71 121 5 13 6 23 2
23 -3 0 2 9 12 20 10 11 14 20 9 20 -12 0 56 44 75 48 9 2 24 4 33 6 10 1 20
5 23 8 9 9 124 -1 146 -12 10 -6 19 -8 19 -5 0 10 75 -33 102 -60 l28 -26 80
83 c44 45 80 84 80 87 -1 4 -24 24 -51 46 -28 22 -56 45 -62 50 -74 62 -306
99 -436 70z"/>
<path d="M1464 2290 c-26 -10 -41 -29 -49 -63 -6 -22 -2 -32 24 -56 37 -35 65
-34 99 4 48 56 -6 140 -74 115z"/>
</g>
</svg>
